<svg version="1.1" id="Layer_1" xmlns="http://www.w3.org/2000/svg" xmlns:xlink="http://www.w3.org/1999/xlink" 
	  xml:space="preserve">
<path fill="#FFFFFF" d="M27.807,17.915c-0.171-0.56-0.187-1.107,0.003-1.661c0.114-0.334,0.224-0.669,0.33-1.004
	c0.371-1.152,0.124-2.084-0.911-2.724c-1.141-0.707-1.874-1.636-2.123-2.95c-0.023-0.124-0.075-0.244-0.126-0.359
	c-0.281-0.65-0.771-1.081-1.448-1.262c-0.308-0.083-0.648-0.12-0.964-0.085c-1.215,0.137-2.257-0.197-3.141-1.037
	c-0.052-0.049-0.116-0.083-0.173-0.124c-0.917-0.66-1.913-0.714-2.771,0.014c-1.042,0.884-2.172,1.331-3.536,1.138
	c-0.028-0.004-0.057-0.001-0.085,0c-1.092,0.018-1.869,0.592-2.215,1.634c-0.689,2.074-0.422,1.759-2.229,3.065
	c-0.034,0.024-0.069,0.049-0.104,0.074c-0.757,0.58-1.097,1.505-0.791,2.413c0.708,2.1,0.704,1.979,0,4.073
	c-0.31,0.924,0.036,1.849,0.825,2.438c0.328,0.245,0.661,0.484,0.998,0.717c0.472,0.326,0.784,0.764,0.95,1.312
	c0.083,0.269,0.172,0.536,0.259,0.804c0.461,1.44,1.125,1.979,2.644,1.898c1.187-0.064,2.162,0.249,3.066,1.02
	c0.553,0.472,1.141,0.625,1.619,0.617c0.753-0.012,1.311-0.38,1.845-0.82c0.719-0.595,1.498-0.954,2.453-0.798
	c0.256,0,0.51,0.008,0.764-0.002c0.989-0.038,1.859-0.583,2.08-1.514c0.342-1.448,1.082-2.521,2.374-3.273
	c0.646-0.375,0.967-1.062,0.877-1.813C28.203,19.096,27.988,18.504,27.807,17.915z M16.943,15.253
	c-0.083,0.523-0.186,1.011-0.312,1.463c-0.325,1.228-0.487,1.946-0.487,2.153v1.992c0,0.487-0.186,0.821-0.556,1.002
	c-0.171,0.082-0.336,0.158-0.494,0.231c-0.158,0.071-0.336,0.108-0.535,0.108c-0.379,0-0.569-0.438-0.569-1.308
	c0-0.872,0.203-1.972,0.609-3.299c0.406-1.328,0.831-2.339,1.273-3.035c0.09-0.135,0.221-0.276,0.393-0.42
	c0.171-0.145,0.357-0.217,0.555-0.217c0.117,0,0.176,0.153,0.176,0.46S16.979,14.982,16.943,15.253z M22.66,20.245
	c-0.189,0.319-0.437,0.614-0.739,0.88c-0.303,0.268-0.639,0.486-1.008,0.657c-0.372,0.172-0.723,0.257-1.058,0.257
	c-0.334,0-0.597-0.062-0.785-0.188c-0.189-0.127-0.339-0.299-0.447-0.516c-0.153-0.307-0.28-0.891-0.38-1.754
	s-0.199-1.466-0.298-1.809c-0.235-0.045-0.44-0.138-0.616-0.277c-0.176-0.141-0.264-0.312-0.264-0.515
	c0-0.203,0.092-0.35,0.277-0.44s0.398-0.135,0.637-0.135c0.239,0,0.453,0.059,0.644,0.176c0.252-0.208,0.458-0.454,0.616-0.738
	c0.158-0.285,0.237-0.669,0.237-1.152c0-0.483-0.162-0.869-0.487-1.158c-0.326-0.29-0.803-0.434-1.431-0.434
	c-0.627,0-1.108,0.05-1.442,0.149c-0.334,0.099-0.622,0.208-0.86,0.325c-0.239,0.117-0.452,0.225-0.637,0.325
	c-0.185,0.099-0.359,0.149-0.521,0.149c-0.163,0-0.244-0.052-0.244-0.156s0.085-0.273,0.257-0.508
	c0.171-0.234,0.425-0.469,0.759-0.704c0.84-0.587,1.788-0.878,2.844-0.874c1.058,0.005,1.929,0.206,2.616,0.603
	c0.804,0.47,1.206,1.174,1.206,2.113c0.009,0.777-0.194,1.423-0.61,1.938c-0.416,0.515-0.93,0.884-1.544,1.11
	c0.135,0.298,0.245,0.619,0.332,0.962c0.086,0.343,0.169,0.659,0.25,0.948s0.175,0.528,0.278,0.718
	c0.103,0.19,0.229,0.285,0.38,0.285c0.148,0,0.329-0.089,0.54-0.264c0.213-0.178,0.423-0.369,0.63-0.576
	c0.208-0.208,0.396-0.4,0.562-0.576c0.168-0.176,0.287-0.264,0.359-0.264c0.154,0,0.231,0.207,0.231,0.622
	C22.945,19.65,22.85,19.924,22.66,20.245z"/>
</svg>
