<?xml version="1.0" encoding="utf-8"?>
<!-- Generator: Adobe Illustrator 16.0.0, SVG Export Plug-In . SVG Version: 6.00 Build 0)  -->
<!DOCTYPE svg PUBLIC "-//W3C//DTD SVG 1.1//EN" "http://www.w3.org/Graphics/SVG/1.1/DTD/svg11.dtd">
<svg version="1.1" id="Layer_1" xmlns="http://www.w3.org/2000/svg" xmlns:xlink="http://www.w3.org/1999/xlink" x="0px" y="0px"
	 width="19.5px" height="19.835px" viewBox="0 0 19.5 19.835" enable-background="new 0 0 19.5 19.835" xml:space="preserve">
<path fill="#FFFFFF" d="M13.532,7.289c0.044,0.106,0.067,0.246,0.067,0.42c0,0.08-0.012,0.239-0.038,0.477
	c-0.304-0.168-0.456-0.439-0.456-0.813c0-0.206,0.069-0.307,0.204-0.307C13.406,7.065,13.482,7.14,13.532,7.289z M18.966,10.333
	c0.165,0.515,0.361,1.033,0.427,1.563c0.083,0.658-0.209,1.256-0.796,1.586c-1.174,0.659-1.848,1.595-2.157,2.861
	c-0.198,0.815-0.992,1.309-1.889,1.325c-1.457,0.023-1.971,0-2.923,0.699c-0.5,0.366-0.992,0.712-1.674,0.716
	c-0.599,0.003-1.021-0.134-1.471-0.538c-0.788-0.711-1.706-0.948-2.785-0.893c-1.38,0.07-1.983-0.4-2.403-1.66
	c-0.077-0.234-0.16-0.467-0.233-0.703c-0.153-0.478-0.437-0.86-0.865-1.145c-0.306-0.204-0.609-0.412-0.907-0.627
	C0.573,13,0.257,12.192,0.541,11.386c0.639-1.832,0.64-1.727-0.002-3.563c-0.277-0.793-0.096-1.547,0.72-2.108
	c1.281-0.881,1.65-1.159,2.119-2.744c0.272-0.925,1.021-1.415,2.013-1.43c0.026,0,0.053-0.003,0.078,0.001
	C6.706,1.709,7.734,1.319,8.68,0.546c0.78-0.637,1.781-0.596,2.518-0.012c0.836,0.665,1.475,1.094,3.011,1.015
	c0.288-0.014,0.595,0.002,0.875,0.074c0.616,0.16,1.061,0.535,1.317,1.104c0.045,0.101,0.09,0.205,0.112,0.314
	c0.228,1.148,0.893,1.961,1.929,2.58c0.94,0.56,1.165,1.373,0.828,2.382c-0.098,0.292-0.195,0.585-0.299,0.876
	C18.796,9.365,18.81,9.844,18.966,10.333z M15.141,8.156c0-0.105-0.064-0.159-0.193-0.159c-0.078,0-0.155,0.026-0.232,0.079
	s-0.171,0.104-0.281,0.155c0.005-0.081,0.01-0.156,0.01-0.225V7.82c0-0.484-0.104-0.869-0.31-1.152
	c-0.207-0.282-0.518-0.424-0.931-0.419c-0.414,0.003-0.74,0.126-0.979,0.369c-0.239,0.242-0.358,0.546-0.358,0.914
	c0,0.367,0.136,0.711,0.413,1.035c0.275,0.324,0.647,0.517,1.119,0.578c-0.18,0.845-0.413,1.515-0.698,2.006
	c-0.388,0.671-0.84,1.008-1.357,1.008c-0.458,0-0.828-0.36-1.104-1.083c0.154-0.304,0.291-0.613,0.407-0.923
	c0.343-0.92,0.514-1.695,0.514-2.324c0-0.305-0.089-0.551-0.266-0.736c-0.178-0.187-0.438-0.28-0.779-0.28
	c-0.461,0-0.791,0.129-0.995,0.387C8.916,7.458,8.814,7.793,8.814,8.202c0,1.107,0.129,2.096,0.388,2.967
	c-0.511,0.654-1.055,0.98-1.63,0.98c-0.123,0-0.227-0.018-0.32-0.056c-0.231-0.1-0.351-0.285-0.358-0.561
	c0.007-0.572,0.193-1.598,0.562-3.078c0.071-0.286,0.106-0.519,0.106-0.7c0-0.417-0.084-0.746-0.253-0.989
	C7.103,6.462,6.776,6.309,6.33,6.309c-0.445,0-0.827,0.112-1.144,0.335c-0.33,0.219-0.494,0.499-0.494,0.839
	c0,0.169,0.051,0.253,0.15,0.253s0.19-0.025,0.266-0.075c0.078-0.049,0.153-0.104,0.228-0.158c0.075-0.058,0.149-0.109,0.223-0.159
	c0.075-0.049,0.158-0.075,0.249-0.075c0.265,0,0.398,0.252,0.398,0.756c0,0.23-0.049,0.543-0.146,0.938
	c-0.097,0.396-0.227,0.898-0.392,1.511c-0.166,0.613-0.248,0.992-0.248,1.133c0,0.597,0.17,1.034,0.508,1.311
	c0.34,0.277,0.799,0.415,1.372,0.415c0.84,0,1.59-0.402,2.25-1.202c0.393,0.8,0.904,1.202,1.53,1.202
	c0.756-0.006,1.395-0.251,1.91-0.737c0.434-0.417,0.782-1.025,1.047-1.828c0.141-0.417,0.254-0.989,0.339-1.716
	c0.231-0.081,0.417-0.199,0.557-0.354C15.073,8.543,15.141,8.364,15.141,8.156z M10.221,7.746c-0.042-0.099-0.104-0.149-0.188-0.149
	c-0.167,0-0.252,0.253-0.252,0.755c0,0.505,0.045,1.012,0.136,1.522c0.246-0.616,0.368-1.214,0.368-1.792
	C10.285,7.957,10.264,7.846,10.221,7.746z"/>
</svg>
